<svg
    xmlns="http://www.w3.org/2000/svg"
   
>
<symbol viewBox="0 0 24 24" id="arrow-down-rounded"><path fill="currentColor" d="M12 14.975q-.2 0-.375-.062T11.3 14.7l-4.6-4.6q-.275-.275-.275-.7t.275-.7t.7-.275t.7.275l3.9 3.9l3.9-3.9q.275-.275.7-.275t.7.275t.275.7t-.275.7l-4.6 4.6q-.15.15-.325.213t-.375.062"></path></symbol>
<symbol viewBox="0 0 24 24" id="arrow-right"><path fill="currentColor" d="M22 12a10 10 0 0 1-10 10A10 10 0 0 1 2 12A10 10 0 0 1 12 2a10 10 0 0 1 10 10M6 13h8l-3.5 3.5l1.42 1.42L17.84 12l-5.92-5.92L10.5 7.5L14 11H6z"></path></symbol>
<symbol viewBox="0 0 24 24" id="figma"><path fill="currentColor" fill-rule="evenodd" d="M8.667 1.25a4.083 4.083 0 0 0-2.36 7.417A4.08 4.08 0 0 0 4.584 12c0 1.376.681 2.594 1.725 3.333a4.083 4.083 0 1 0 6.442 3.333v-3.504a4.083 4.083 0 1 0 4.942-6.496a4.083 4.083 0 0 0-2.36-7.417zm2.583 13.333H8.667a2.583 2.583 0 1 1 0-5.166h2.583zM8.667 7.917h2.583V2.75H8.667a2.583 2.583 0 1 0 0 5.167m9.25-2.584a2.583 2.583 0 0 1-2.58 2.584H12.75V2.75h2.584a2.583 2.583 0 0 1 2.583 2.583m-5.167 6.664a2.583 2.583 0 0 1 2.58-2.58h.006a2.583 2.583 0 1 1-2.586 2.586zm-4.083 4.086a2.583 2.583 0 1 0 2.583 2.584v-2.584z" clip-rule="evenodd"></path></symbol>
<symbol viewBox="0 0 24 24" id="github"><path fill="currentColor" d="M12.026 2a9.975 9.975 0 0 0-3.153 19.439c.5.09.679-.217.679-.481c0-.237-.008-.865-.011-1.7c-2.775.6-3.361-1.338-3.361-1.338a2.635 2.635 0 0 0-1.107-1.459c-.9-.619.069-.605.069-.605c.64.088 1.205.467 1.527 1.028a2.124 2.124 0 0 0 2.9.829c.046-.506.272-.979.635-1.334c-2.214-.251-4.542-1.107-4.542-4.93a3.865 3.865 0 0 1 1.026-2.671a3.588 3.588 0 0 1 .1-2.64s.837-.269 2.742 1.021a9.439 9.439 0 0 1 4.992 0c1.906-1.291 2.742-1.021 2.742-1.021c.37.835.405 1.78.1 2.64a3.84 3.84 0 0 1 1.024 2.675c0 3.833-2.33 4.675-4.552 4.922c.48.49.725 1.162.675 1.846c0 1.334-.012 2.41-.012 2.737c0 .267.178.577.687.479A9.975 9.975 0 0 0 12.026 2Z"></path></symbol>
<symbol viewBox="0 0 24 24" id="code"><path fill="currentColor" d="M19 3H5c-1.1 0-2 .9-2 2v14c0 1.1.9 2 2 2h14c1.1 0 2-.9 2-2V5c0-1.1-.9-2-2-2m-8 5H9v2c0 1.1-.9 2-2 2c1.1 0 2 .9 2 2v2h2v2H9c-1.1 0-2-.9-2-2v-1c0-1.1-.9-2-2-2v-2c1.1 0 2-.9 2-2V8c0-1.1.9-2 2-2h2zm8 5c-1.1 0-2 .9-2 2v1c0 1.1-.9 2-2 2h-2v-2h2v-2c0-1.1.9-2 2-2c-1.1 0-2-.9-2-2V8h-2V6h2c1.1 0 2 .9 2 2v1c0 1.1.9 2 2 2z"></path></symbol>
<symbol viewBox="0 0 24 24" id="dollar"><g fill="currentColor"><path d="M10.333 8.472h.917v2.778h-.917c-.937 0-1.583-.682-1.583-1.389s.646-1.389 1.583-1.389m2.417 7.056V12.75h.917c.937 0 1.583.682 1.583 1.389s-.646 1.389-1.583 1.389z"></path><path d="M9.367 2.25h5.266c1.092 0 1.958 0 2.655.057c.714.058 1.317.18 1.869.46a4.75 4.75 0 0 1 2.075 2.077c.281.55.403 1.154.461 1.868c.057.697.057 1.563.057 2.655v5.266c0 1.092 0 1.958-.057 2.655c-.058.714-.18 1.317-.46 1.869a4.75 4.75 0 0 1-2.076 2.075c-.552.281-1.155.403-1.869.461c-.697.057-1.563.057-2.655.057H9.367c-1.092 0-1.958 0-2.655-.057c-.714-.058-1.317-.18-1.868-.46a4.75 4.75 0 0 1-2.076-2.076c-.281-.552-.403-1.155-.461-1.869c-.057-.697-.057-1.563-.057-2.655V9.367c0-1.092 0-1.958.057-2.655c.058-.714.18-1.317.46-1.868a4.75 4.75 0 0 1 2.077-2.076c.55-.281 1.154-.403 1.868-.461c.697-.057 1.563-.057 2.655-.057M12.75 6.5a.75.75 0 0 0-1.5 0v.472h-.917c-1.64 0-3.083 1.234-3.083 2.89c0 1.655 1.443 2.888 3.083 2.888h.917v2.778H8a.75.75 0 0 0 0 1.5h3.25v.472a.75.75 0 0 0 1.5 0v-.472h.917c1.64 0 3.083-1.233 3.083-2.89c0-1.655-1.443-2.888-3.083-2.888h-.917V8.472h2.583a.75.75 0 0 0 0-1.5H12.75z"></path></g></symbol>
<symbol viewBox="0 0 24 24" id="play"><path fill="currentColor" d="M12 2C6.475 2 2 6.475 2 12s4.475 10 10 10s10-4.475 10-10S17.525 2 12 2m-2 14.5v-9l6 4.5z"></path></symbol>
</svg>